# xmcd CD database file
#
# Track frame offsets:
#	150
#	12559
#	24456
#	42386
#	54795
#	69589
#	80470
#	95325
#	114333
#	125456
#	135336
#	163761
#	177559
#	206741
#	219003
#	232969
#	249015
#	265369
#	284501
#
# Disc length: 4079 seconds
#
# Revision: 0
# Processed by: cddbd v1.5.2PL0 Copyright (c) Steve Scherf et al.
# Submitted via: CDex 1.51
#
DISCID=020fed13
DTITLE=Ray Charles - More Music From 'Ray'
DYEAR=2004
DGENRE=Jazz
TTITLE0=Leave My Woman Alone
TTITLE1=Lonely Avenue
TTITLE2=Rockhouse (part 1 and 2)
TTITLE3=Leave My Woman Alone
TTITLE4=Losing Hand
TTITLE5=I'm Movin' On
TTITLE6=But On The Other Hand Baby
TTITLE7=Baby, It's Cold Outside
TTITLE8=The Danger Zone
TTITLE9=Busted
TTITLE10=Makin' Whoopee (Live Version)
TTITLE11=Let's Go Get Stoned
TTITLE12=Drifting Blues
TTITLE13=Baby Let Me Hold Your Hand
TTITLE14=Drown In My Own Tears - You Don't Know Me
TTITLE15=Everyday I Have The Blues (with Chris Thomas King)
TTITLE16=America The Beautiful
TTITLE17=Surrender To Love (with Laura Pausini - LP Version)
TTITLE18=Blame It On The Sun (with George Michael - LP Version)
EXTD=YEAR: 2004
EXTT0=
EXTT1=
EXTT2=
EXTT3=
EXTT4=
EXTT5=
EXTT6=
EXTT7=
EXTT8=
EXTT9=
EXTT10=
EXTT11=
EXTT12=
EXTT13=
EXTT14=
EXTT15=
EXTT16=
EXTT17=
EXTT18=
PLAYORDER=
